<svg width="59" height="38" viewBox="0 0 59 38" fill="none" xmlns="http://www.w3.org/2000/svg">
<path d="M41.3333 21.6667C38.1333 21.6667 33.1467 22.5734 29.3333 24.3334C25.52 22.5467 20.5333 21.6667 17.3333 21.6667C11.5467 21.6667 0 24.5467 0 30.3334V37.6667H58.6667V30.3334C58.6667 24.5467 47.12 21.6667 41.3333 21.6667ZM30.6667 33.6667H4V30.3334C4 28.8934 10.8267 25.6667 17.3333 25.6667C23.84 25.6667 30.6667 28.8934 30.6667 30.3334V33.6667ZM54.6667 33.6667H34.6667V30.3334C34.6667 29.1067 34.1333 28.04 33.28 27.08C35.6267 26.28 38.5067 25.6667 41.3333 25.6667C47.84 25.6667 54.6667 28.8934 54.6667 30.3334V33.6667ZM17.3333 19C22.48 19 26.6667 14.8134 26.6667 9.66671C26.6667 4.52004 22.48 0.333374 17.3333 0.333374C12.1867 0.333374 8 4.52004 8 9.66671C8 14.8134 12.1867 19 17.3333 19ZM17.3333 4.33337C20.2667 4.33337 22.6667 6.73337 22.6667 9.66671C22.6667 12.6 20.2667 15 17.3333 15C14.4 15 12 12.6 12 9.66671C12 6.73337 14.4 4.33337 17.3333 4.33337ZM41.3333 19C46.48 19 50.6667 14.8134 50.6667 9.66671C50.6667 4.52004 46.48 0.333374 41.3333 0.333374C36.1867 0.333374 32 4.52004 32 9.66671C32 14.8134 36.1867 19 41.3333 19ZM41.3333 4.33337C44.2667 4.33337 46.6667 6.73337 46.6667 9.66671C46.6667 12.6 44.2667 15 41.3333 15C38.4 15 36 12.6 36 9.66671C36 6.73337 38.4 4.33337 41.3333 4.33337Z" fill="#FDB100"/>
</svg>
